# xmcd
#
# Track frame offsets:
# 150
# 12460
# 24132
# 35465
# 44132
# 54325
# 64247
# 74300
# 82617
# 94132
# 105354
# 114110
# 135780
# 147022
# 160510
# 178565
# 191102
# 202065
# 218782
# 232005
#
# Disc length: 3268 seconds
#
#
# Revision: 0
# Processed by: cddbd v1.5PL3 Copyright (c) Steve Scherf et al.
# Submitted via: FreeRIP 2.70 
#
DISCID=040cc214
DTITLE=Pauline Julien - Les grands succès N2
DYEAR=1969
DGENRE=
TTITLE0=Son coeur
TTITLE1=Douces fées
TTITLE2=Moi j'en ai marre
TTITLE3=La maison de santé
TTITLE4=Fais moi mal Johnny
TTITLE5=L'amour en cage
TTITLE6=Je chasse
TTITLE7=Fugue
TTITLE8=La java des bombes atomiques
TTITLE9=Sans lui
TTITLE10=Ne vous mariez
TTITLE11=Bilbao
TTITLE12=La java martienne
TTITLE13=La chasse à l'homme
TTITLE14=La grenouille
TTITLE15=L'homme de ma vie
TTITLE16=La vie continue
TTITLE17=J'entrevois
TTITLE18=Les ancêtres
TTITLE19=Il y a
EXTD=
EXTT0=
EXTT1=
EXTT2=
EXTT3=
EXTT4=
EXTT5=
EXTT6=
EXTT7=
EXTT8=
EXTT9=
EXTT10=
EXTT11=
EXTT12=
EXTT13=
EXTT14=
EXTT15=
EXTT16=
EXTT17=
EXTT18=
EXTT19=
PLAYORDER=
